<?xml version="1.0" encoding="UTF-8" standalone="no"?>
<!-- Created with Inkscape (http://www.inkscape.org/) -->
<svg
   xmlns:svg="http://www.w3.org/2000/svg"
   xmlns="http://www.w3.org/2000/svg"
   version="1.0"
   width="300"
   height="170.48"
   id="svg82724">
  <defs
     id="defs82726" />
  <path
     d="M 179.1762,117.50384 C 179.1762,99.503672 179.1762,81.442213 179.1762,63.396079 C 179.1762,57.624177 181.80165,53.650247 184.39645,51.055445 C 186.95039,48.4964 190.5208,47.36756 195.52141,47.36756 C 200.52713,47.36756 204.05668,48.4964 206.62083,51.055445 C 209.22585,53.650247 212.06072,57.624177 212.06072,63.396079 C 212.06072,77.161811 212.06072,90.953083 212.06072,104.70349 C 212.06072,107.71714 211.58058,111.62467 215.29912,115.37896 C 219.03808,119.09239 222.02619,119.28138 224.29409,119.28138 C 226.53645,119.28138 229.51945,119.09239 233.22777,115.37896 C 236.97695,111.62467 236.65005,107.71714 236.65005,104.70349 C 236.65005,78.852519 236.65005,51.280192 236.65005,25.46497 C 233.26863,25.46497 229.77484,25.46497 226.42408,25.46497 C 226.42408,48.72114 226.42408,73.780396 226.42408,97.036566 C 226.42408,98.267565 225.74473,99.268709 224.29409,99.268709 C 222.81791,99.268709 222.53698,98.267565 222.53698,97.036566 C 222.53698,84.905355 222.53698,64.443194 222.53698,52.858526 C 222.53698,45.5134 221.36217,37.91798 215.06926,31.9673 C 208.76614,26.01152 205.98235,25.00016 195.49587,25.00016 C 185.02983,25.00016 182.27157,26.01152 175.93781,31.9673 C 169.63979,37.91798 168.85318,45.5134 168.85318,52.858526 C 168.85318,67.829718 168.85318,103.9322 168.85318,106.96628 C 168.85318,112.73818 166.2073,116.7683 163.64825,119.37332 C 161.05856,121.93237 157.49836,123.06121 152.50286,123.06121 C 147.49203,123.06121 143.92162,121.93237 141.3779,119.37332 C 138.79331,116.7683 135.92269,112.73818 135.92269,106.96628 C 135.92269,88.909932 135.92269,70.889337 135.92269,52.827879 C 135.92269,45.46743 134.74787,37.91798 128.41921,31.9673 C 122.14163,26.01152 119.64899,25.00016 109.14719,25.00016 C 98.681141,25.00016 95.626631,26.01152 89.328621,31.9673 C 82.999961,37.91798 82.417661,45.46743 82.417661,52.827879 C 82.417661,67.543676 82.417661,82.361632 82.417661,97.036566 C 82.417661,98.267565 81.911981,99.268709 80.435804,99.268709 C 78.97495,99.268709 78.428407,98.267565 78.428407,97.036566 C 78.428407,82.361632 78.428407,67.543676 78.428407,52.827879 C 78.428407,45.48275 77.319998,37.91798 71.011768,31.9673 C 64.713754,26.01152 61.960607,25.00016 51.443486,25.00016 C 40.977443,25.00016 38.219189,26.01152 31.916067,31.9673 C 25.587405,37.91798 24.999999,45.48275 24.999999,52.827879 L 24.999999,145.30091 C 28.366091,145.30091 31.742399,145.30091 35.123814,145.30091 C 35.123814,118.7144 35.123814,90.003018 35.123814,63.416511 C 35.123814,57.644608 37.769695,53.650247 40.344066,51.055445 C 42.903113,48.4964 46.478628,47.36756 51.479241,47.36756 C 56.484962,47.36756 60.040045,48.4964 62.624632,51.055445 C 65.173463,53.650247 67.788697,57.644608 67.788697,63.416511 C 67.788697,77.136272 67.788697,90.988838 67.788697,104.70349 C 67.788697,107.71714 67.558842,111.62467 71.282486,115.37896 C 75.006129,119.09239 78.004454,119.28138 80.226381,119.28138 C 82.489171,119.28138 85.467061,119.09239 89.185601,115.37896 C 92.929671,111.62467 92.536371,107.71714 92.536371,104.70349 C 92.536371,101.61323 92.536371,74.086869 92.536371,63.416511 C 92.536371,57.644608 95.197571,53.650247 97.756621,51.055445 C 100.35653,48.4964 104.14147,47.36756 109.14719,47.36756 C 114.13758,47.36756 117.9072,48.4964 120.46625,51.055445 C 123.05083,53.650247 125.74779,57.644608 125.74779,63.416511 C 125.74779,81.442213 125.74779,99.457701 125.74779,117.46297 C 125.74779,124.96645 126.38628,132.53632 132.68429,138.47168 C 138.9823,144.41725 141.77121,145.43882 152.24236,145.43882 C 162.75437,145.43882 165.52284,144.41725 171.81575,138.47168 C 178.11376,132.53632 179.1762,124.90004 179.1762,117.50384 M 243.59677,138.47184 C 249.88968,132.53648 251.01341,124.9002 251.01341,117.50399 C 250.92658,87.433914 250.92658,55.570969 250.92658,25.46513 C 247.63199,25.46513 244.20972,25.46513 240.93557,25.46513 C 240.93557,52.010777 240.93557,80.359502 240.93557,106.92047 C 240.93557,112.67194 237.98832,116.76846 235.42416,119.37348 C 232.82425,121.93253 229.29471,123.06137 224.2941,123.06137 C 219.28327,123.06137 215.71797,121.93253 213.14871,119.37348 C 210.5488,116.76846 208.06637,112.67194 208.06637,106.92047 C 208.06637,92.444743 208.06637,80.109216 208.06637,65.648813 C 208.06637,62.635164 208.475,58.799148 204.74625,55.070396 C 201.03282,51.346753 198.07025,51.147546 195.80235,51.147546 C 193.57021,51.147546 190.57188,51.346753 186.84824,55.070396 C 183.11438,58.799148 183.60985,62.635164 183.60985,65.648813 C 183.60985,92.230212 183.60985,118.70435 183.60985,145.30107 C 187.32327,145.30107 189.80059,145.30107 193.4987,145.30107 C 193.4987,121.99893 193.4987,96.582124 193.4987,73.269767 C 193.4987,72.054092 194.04524,71.175537 195.52142,71.175537 C 197.00781,71.175537 197.50838,72.054092 197.50838,73.269767 C 197.61565,74.904288 197.50838,108.19744 197.50838,117.50399 C 197.50838,124.9002 198.1673,132.53648 204.46021,138.47184 C 210.79908,144.41741 213.57266,145.43898 224.02849,145.43898 C 234.49964,145.43898 237.27322,144.41741 243.59677,138.47184 M 121.22222,65.648575 C 121.22222,62.588956 121.98329,58.79891 118.23922,55.070159 C 114.5309,51.346515 111.36912,51.147308 109.1472,51.147308 C 106.89973,51.147308 104.05975,51.346515 100.33611,55.070159 C 96.592031,58.79891 96.786131,62.588956 96.786131,65.648575 C 96.786131,79.378552 96.786131,93.205579 96.786131,106.94066 C 96.786131,112.70746 93.941041,116.76822 91.366671,119.37324 C 88.822951,121.9374 85.257651,123.06624 80.226389,123.06624 C 75.230884,123.06624 71.675801,121.9374 69.10143,119.37324 C 66.537275,116.76822 63.830099,112.70746 63.830099,106.94066 C 63.830099,92.475152 63.830099,80.114087 63.830099,65.648575 C 63.830099,62.634927 64.008875,58.79891 60.285232,55.070159 C 56.546265,51.346515 53.604127,51.147308 51.341337,51.147308 C 49.104086,51.147308 46.115977,51.346515 42.392334,55.070159 C 38.663582,58.79891 38.939408,62.634927 38.939408,65.648575 C 38.939408,84.133987 38.939408,142.26164 38.939408,145.30594 C 42.392334,145.30594 46.039359,145.30594 49.497393,145.30594 C 49.497393,122.01912 49.497393,96.617642 49.497393,73.335932 C 49.497393,72.079394 49.997965,71.175299 51.479249,71.175299 C 52.940103,71.175299 53.496861,72.079394 53.496861,73.295069 C 53.496861,88.02619 53.496861,102.82882 53.496861,117.50376 C 53.496861,124.89996 54.114915,132.54135 60.438468,138.4716 C 66.762021,144.42228 69.535599,145.43874 79.996534,145.43874 C 90.498331,145.43874 93.251481,144.42228 99.554601,138.4716 C 105.86283,132.54135 106.89973,124.89996 106.89973,117.50376 C 106.89973,102.82882 106.89973,88.02619 106.89973,73.295069 C 106.89973,72.115149 107.66591,71.175299 109.1472,71.175299 C 110.60805,71.175299 111.35891,72.115149 111.35891,73.295069 C 111.35891,96.581887 111.35891,122.01912 111.35891,145.30594 C 114.63306,145.30594 117.93275,145.30594 121.22222,145.30594 C 121.22222,119.42432 121.22222,91.484224 121.22222,65.648575 M 140.23374,104.70872 C 140.23374,107.72236 139.82,111.62989 143.55386,115.38418 C 147.24686,119.0925 150.26051,119.2866 152.50286,119.2866 C 154.74522,119.2866 157.72312,119.0925 161.45697,115.38418 C 165.19083,111.62989 164.79242,107.72236 164.79242,104.70872 C 164.79242,87.204016 164.79242,28.55536 164.79242,25.46509 C 161.50295,25.46509 157.91722,25.46509 154.61242,25.46509 C 154.61242,48.72637 154.61242,73.780511 154.61242,97.04179 C 154.61242,98.272788 153.96372,99.268825 152.50286,99.268825 C 151.04201,99.268825 150.29626,98.272788 150.29626,97.04179 C 150.29626,73.780511 150.29626,48.72637 150.29626,25.46509 C 147.017,25.46509 143.52321,25.46509 140.23374,25.46509 C 140.23374,51.285415 140.23374,78.857742 140.23374,104.70872 M 255.44704,145.47984 L 275,145.44408 L 274.94892,25.46512 L 255.44704,25.46512 L 255.44704,145.47984"
     id="Logo"
     style="fill:#c60651;fill-opacity:1;fill-rule:nonzero;stroke:none" />
</svg>
